<?xml version="1.0" standalone="no"?>
<!DOCTYPE svg PUBLIC "-//W3C//DTD SVG 1.1//EN" "http://www.w3.org/Graphics/SVG/1.1/DTD/svg11.dtd" >
<svg xmlns="http://www.w3.org/2000/svg" xmlns:xlink="http://www.w3.org/1999/xlink" version="1.1">
<metadata></metadata>
<defs>
<font id="roadgeek_transport_heavyRg" horiz-adv-x="768" >
<font-face units-per-em="2048" ascent="1638" descent="-410" />
<missing-glyph horiz-adv-x="600" />
<glyph horiz-adv-x="0" />
<glyph unicode="&#xd;" horiz-adv-x="600" />
<glyph unicode=" "  horiz-adv-x="600" />
<glyph unicode="&#x09;" horiz-adv-x="600" />
<glyph unicode="&#xa0;" horiz-adv-x="600" />
<glyph unicode="!" horiz-adv-x="1274" d="M784 390h300v1159h-300v-1159zM788 91q0 116 95 158q23 10 29 10q169 0 169 -154q0 -58 -43.5 -96.5t-103.5 -38.5q-96 0 -135 89q-11 26 -11 32z" />
<glyph unicode="&#x22;" horiz-adv-x="1096" d="M60 1199q50 70 56 104l8 4q26 63 85 161q47 77 95 155h332q-48 -67 -123 -211q-77 -149 -121 -213h-332zM500 1199q3 15 113 209t127 215h328q0 -12 -42 -81q-45 -74 -50 -91l-8 -4q-8 -23 -40.5 -72.5t-39.5 -75.5l-8 -4l-4 -16q-16 -29 -48 -80h-328z" />
<glyph unicode="#" horiz-adv-x="216" />
<glyph unicode="$" horiz-adv-x="1588" d="M93 267q114 90 260 208q207 -204 453 -204q95 0 163 31q94 40 94 125q0 134 -212 191q-382 102 -394 107q-212 100 -212 338q0 256 178 390q159 121 423 121q351 0 603 -255q-35 -43 -113 -108q-94 -79 -119 -104q-185 152 -379 152q-78 0 -145 -27q-92 -37 -92 -105 q0 -112 212 -171q330 -93 393 -128q212 -117 212 -369q0 -258 -214 -389q-177 -107 -452 -107q-383 0 -659 304zM643 1548h294v31h-294v-31zM645 1544h296v233h-296v-233zM647 -8v-238h296v238h-296zM647 -9v-31h294v31h-294z" />
<glyph unicode="&#x26;" horiz-adv-x="1376" d="M85 429q0 314 252 462q-83 131 -83 257q0 170 112 274q110 101 280 101q166 0 273 -94q112 -98 112 -260q0 -229 -274 -354l-4 -12q49 -43 114 -145q93 -146 102 -159q58 82 56 172h272q-15 -244 -156 -408q68 -21 152 -8q5 -84 32 -232q-106 -44 -192 -44 q-125 0 -208 92q-167 -98 -336 -98q-204 0 -350 123q-154 131 -154 333zM378 475q0 -39 20 -83q17 -39 35 -77q94 -70 184 -70q77 0 152 50q-33 25 -36 52l-8 4q-1 8 -104 150q-98 135 -120 162q-123 -81 -123 -188zM541 1163q0 -32 18 -69q17 -31 34 -63q142 44 156 180 q-35 72 -108 72q-8 -3 -25 -12q-75 -42 -75 -108z" />
<glyph unicode="(" horiz-adv-x="1236" d="M104 759q0 361 180 610q143 197 480 414q21 -12 68 -97q62 -112 64 -115q-469 -299 -469 -805q0 -543 469 -827q-5 -7 -67 -115q-49 -87 -65 -93q-5 7 -84 60q-295 199 -426 404q-150 234 -150 564z" />
<glyph unicode=")" horiz-adv-x="1236" d="M336 -71q473 307 473 797q0 569 -473 835q42 69 120 212q676 -352 676 -1020q0 -270 -84 -457q-72 -160 -232 -305q-80 -73 -348 -270q-10 1 -48 65q-32 55 -40 75l-8 4z" />
<glyph unicode="*" horiz-adv-x="874" d="M75 576v175h725v-172l-43 -3h-682zM117 859l122 122q112 -92 263 -248q126 -132 251 -263l-124 -123zM119 469q15 16 512 513l122 -122q-91 -108 -250 -262q-239 -232 -260 -253zM349 302v725h172l3 -43v-682h-175z" />
<glyph unicode="+" horiz-adv-x="828" d="M75 534v258h677v-253l-40 -5h-637zM284 325v677h253l5 -40v-637h-258z" />
<glyph unicode="," horiz-adv-x="736" d="M118 214q0 47 50 90t99 43q68 0 120 -32q60 -38 60 -102q0 -281 -272 -342q-2 4 -28 72q114 38 164 88v20l-16 12l-24 -1q-153 -5 -153 152z" />
<glyph unicode="-" d="M112 547v232h476v-232h-476z" />
<glyph unicode="." horiz-adv-x="604" d="M148 91q0 70 42 126q45 62 114 62q70 0 120 -48.5t50 -117.5q0 -76 -46 -118.5t-122 -42.5q-57 0 -106 42q-52 43 -52 97z" />
<glyph unicode="/" horiz-adv-x="876" d="M56 -289q79 339 259 931q200 659 269 929l236 -64q0 -42 -240 -863q-270 -924 -288 -993h-20q-6 0 -105 28q-107 31 -111 32z" />
<glyph unicode="0" horiz-adv-x="1572" d="M184 788q0 332 143 542q166 241 482 241q342 0 514 -234q151 -206 151 -562q0 -347 -148 -561q-171 -247 -502 -247q-338 0 -502 254q-138 213 -138 567zM509 763q0 -275 60 -356q33 -45 56 -68q20 -15 40 -36q94 -41 163 -41q321 0 321 500q0 233 -58 352 q-82 165 -291 165q-291 0 -291 -516z" />
<glyph unicode="1" horiz-adv-x="908" d="M96 1027v268h11q121 -2 213 56q23 50 68 176h280v-1528h-316v1028h-256z" />
<glyph unicode="2" horiz-adv-x="1352" d="M76 943v35q-5 583 605 583q257 0 399.5 -143t142.5 -401q0 -139 -95 -320q-101 -192 -220 -246q-3 -19 -240 -164h520v-244l-8 -44h-1060v288q155 100 311 199q216 140 325 253q150 155 150 302q0 109 -73 169q-68 54 -179 54q-265 0 -262 -321h-316z" />
<glyph unicode="3" horiz-adv-x="1480" d="M108 451l12 12q193 45 308 48q53 -261 302 -261q108 0 173 56q69 59 69 165q0 90 -70 130q-51 30 -154 38l-156 8v280h21q341 -2 341 185q0 169 -244 169q-249 0 -282 -226q-107 13 -320 40q122 473 616 473q220 0 377 -121q173 -132 173 -347q0 -244 -170 -309 q186 -88 186 -292q0 -284 -147 -416q-140 -125 -428 -125q-504 0 -607 493z" />
<glyph unicode="4" horiz-adv-x="1496" d="M36 263v292q120 147 366 489q233 324 370 487h404v-980h196v-280l-12 -8h-184v-260h-316v260h-824zM388 551h472v624h-4q-16 -39 -88 -120t-88 -120l-8 -4q-7 -11 -20 -32l-8 -4q-94 -126 -188 -256q-29 -39 -68 -88z" />
<glyph unicode="5" horiz-adv-x="1408" d="M160 391q104 36 304 88q14 -93 83.5 -159t161.5 -66q109 0 189 90q76 87 76 197q0 106 -68 190q-72 89 -177 89q-167 0 -245 -133q-158 46 -324 52v12q0 144 44 388l72 392l4 4h944v-288h-664l-16 -12q0 -1 -28 -208q144 87 283 87q241 0 373 -176q118 -158 118 -404 q0 -279 -152.5 -423.5t-433.5 -144.5q-429 0 -544 425z" />
<glyph unicode="6" horiz-adv-x="1400" d="M150 801q0 760 633 760q402 0 486 -334q-77 -19 -284 -104q-71 157 -214 157q-141 0 -222 -99q-74 -89 -80 -234q179 114 349 114q219 0 355 -146q132 -142 132 -362q0 -576 -555 -576q-328 0 -480 261q-120 208 -120 563zM497 542q0 -124 70 -198.5t194 -74.5 q107 0 169 84q56 76 56 187q0 89 -63 164q-66 79 -154 79q-104 0 -186 -67q-86 -72 -86 -174z" />
<glyph unicode="7" horiz-adv-x="1160" d="M36 1247v288h1076v-296q-233 -560 -512 -1232h-344q2 16 512 1240h-732z" />
<glyph unicode="8" horiz-adv-x="1496" d="M234 463q0 234 208 328q-184 123 -184 298q0 219 173 351q157 121 381 121q223 0 378 -123q167 -133 167 -352q0 -185 -179 -287q204 -110 204 -328q0 -240 -164 -375q-153 -127 -399 -127q-249 0 -409 120q-176 134 -176 374zM558 446q0 -189 268 -189q237 0 237 220 q0 80 -86 130q-73 42 -159 42q-260 0 -260 -203zM591 1094q0 -180 226 -180q217 0 217 209q0 5 -16 34q-63 117 -198 117q-95 0 -158 -43q-71 -49 -71 -137z" />
<glyph unicode="9" horiz-adv-x="1400" d="M170 1006q0 550 543 550q431 0 542 -409q25 -3 56 -248l8 -64q11 -89 11 -171q0 -322 -167 -504q-173 -187 -491 -187q-370 0 -469 334q74 27 149 55q139 51 143 49q55 -154 200 -154q142 0 226 96q80 90 82 234q-176 -113 -348 -113q-237 0 -365 151q-120 142 -120 381z M485 1013q0 -101 61 -178q65 -84 165 -84q120 0 192 77.5t72 196.5q0 111 -87 179q-81 63 -193 63q-86 0 -150 -87q-60 -80 -60 -167z" />
<glyph unicode=":" horiz-adv-x="604" d="M172 87q0 73 42 130q46 62 118 62q67 0 118 -48.5t51 -114.5q0 -77 -48 -120.5t-126 -43.5q-97 0 -141 97q-14 31 -14 38zM177 662q0 61 43 111t104 50q63 0 119 -41q61 -45 61 -106q0 -181 -173 -181q-68 0 -111 49.5t-43 117.5z" />
<glyph unicode=";" horiz-adv-x="604" d="M174 122q0 47 50 90t99 43q68 0 120 -32q60 -38 60 -102q0 -281 -272 -342q-2 4 -28 72q114 38 164 88v20l-16 12l-24 -1q-153 -5 -153 152zM177 662q0 61 43 111t104 50q63 0 119 -41q61 -45 61 -106q0 -181 -173 -181q-68 0 -111 49.5t-43 117.5z" />
<glyph unicode="=" horiz-adv-x="797" d="M75 318v228h650v-224l-39 -4h-611zM75 773v228h650v-224l-39 -4h-611z" />
<glyph unicode="?" horiz-adv-x="1572" d="M408 1015q19 225 152 374q143 162 364 162q233 0 385 -154.5t152 -386.5q0 -181 -98 -304q-19 -23 -183 -167q-98 -86 -96 -176h-292q2 176 100 302q26 34 181 172q97 87 97 167q0 97 -56 169q-62 78 -158 78q-235 0 -256 -236h-292zM788 91q0 116 95 158q23 10 29 10 q169 0 169 -154q0 -58 -43.5 -96.5t-103.5 -38.5q-96 0 -135 89q-11 26 -11 32z" />
<glyph unicode="@" horiz-adv-x="2060" d="M80 522q0 399 275.5 676.5t674.5 277.5q401 0 677.5 -276.5t276.5 -677.5q0 -397 -278.5 -673.5t-675.5 -276.5q-395 0 -672.5 277.5t-277.5 672.5zM236 524q0 -334 232 -565.5t565 -231.5q332 0 564 232.5t232 564.5q0 334 -231 565t-565 231t-565.5 -231t-231.5 -565z M546 279q0 207 178 326q155 103 377 103q45 0 89 -5l1 30q3 143 -134 143q-82 0 -186 -47q-146 -66 -173 -74l-28 52q-4 0 -24 36q-34 45 -88 140l224 104q128 54 244 54q285 0 387 -123q75 -90 75 -306q0 -34 -2 -109t-2 -114q0 -134 18 -230q49 -51 266 -90l-182 -239 q-254 36 -344 149q-111 -111 -263 -111q-144 0 -278 81q-155 94 -155 230zM861 335q0 -51 54 -88q49 -32 104 -32q60 0 135 36q36 46 36 64v168h-12q-28 0 -150 -28q-125 -29 -138 -40q-29 -26 -29 -80z" />
<glyph unicode="A" horiz-adv-x="1540" d="M64 -1q59 267 231 763q137 385 273 769h412q-1 -6 508 -1532h-348q-26 54 -80 272h-572q-31 -90 -80 -272h-344zM572 543h404q-16 80 -94 326q-73 234 -110 330q-7 -43 -31 -111q-31 -86 -37 -109q-20 -74 -66 -218.5t-66 -217.5z" />
<glyph unicode="B" horiz-adv-x="1584" d="M245 -1v1532h736q160 0 283 -132.5t123 -293.5q0 -162 -158 -274q221 -104 221 -374q0 -223 -159 -346q-144 -112 -370 -112h-676zM557 299h336q91 0 150.5 50t59.5 141q0 64 -51 124.5t-115 60.5h-380v-376zM557 915h368q51 0 93 55q40 52 40 104q0 76 -54 120 q-50 41 -127 41h-320v-320z" />
<glyph unicode="C" horiz-adv-x="1640" d="M220 759q0 338 197 567q206 241 536 241q503 0 678 -480q-4 -5 -316 -128q-83 304 -352 304q-394 0 -394 -532q0 -187 95 -317q106 -145 288 -145q138 0 239 83.5t120 218.5q107 -43 320 -120q-174 -483 -679 -483q-329 0 -535 233q-197 223 -197 558z" />
<glyph unicode="D" horiz-adv-x="1628" d="M248 -1v1532h612q276 0 472 -231q185 -219 185 -498q0 -393 -208.5 -601.5t-600.5 -208.5q-77 0 -230 3.5t-230 3.5zM560 311h284q154 0 259 140q96 128 96 287q0 222 -100 348q-107 136 -313 136h-9l-217 -3v-908z" />
<glyph unicode="E" horiz-adv-x="1476" d="M240 -1v1532h1004v-304h-688v-308h624v-284h-624v-320q17 -12 748 -12v-304h-1064z" />
<glyph unicode="F" horiz-adv-x="1312" d="M236 -1v1532h1008v-304h-692v-308h624v-288h-624v-632h-316z" />
<glyph unicode="G" horiz-adv-x="1696" d="M184 776q0 327 194 554q203 238 524 238q453 0 640 -385q-54 -19 -147 -69q-100 -53 -145 -71q-111 219 -340 219q-199 0 -300 -156q-84 -132 -84 -342q0 -212 88 -343q103 -153 304 -153q146 0 247 98q97 95 97 234v11h-384v272h672v-884h-292v100q-152 -136 -384 -136 q-317 0 -512 256q-178 233 -178 557z" />
<glyph unicode="H" horiz-adv-x="1724" d="M248 -1v1528h316v-580h612v580h316v-1528h-316v648h-612v-648h-316z" />
<glyph unicode="I" horiz-adv-x="788" d="M240 -1v1528h316v-1528h-316z" />
<glyph unicode="J" horiz-adv-x="1028" d="M40 -1q8 107 40 316q10 -6 119 -15q98 -9 113 -9q14 0 50 5q32 4 50 3q24 17 56 48q32 158 32 458q0 135 -8 384t-8 338h316v-1176q0 -172 -140 -280q-129 -100 -304 -100h-88q-53 0 -228 28z" />
<glyph unicode="K" horiz-adv-x="1504" d="M232 -1v1528h316v-520l24 20l4 12q99 82 230 234l214 254h428q-89 -133 -259 -313q-40 -42 -289 -291l74 -124q68 -112 74 -112q58 -103 182 -292q127 -196 182 -292q6 0 33 -45.5t31 -58.5h-372q-11 25 -214 342q-205 321 -218 330q-2 -8 -61 -73q-52 -57 -63 -67v-532 h-316z" />
<glyph unicode="L" horiz-adv-x="1280" d="M244 3v1528h316v-1224h672v-304h-988z" />
<glyph unicode="M" horiz-adv-x="2024" d="M244 3v1528h404q14 -21 167 -229q104 -141 149 -235q1 0 48 -68q10 -1 92 124q95 134 280 408h408v-1528h-300q-19 25 -19 429v81q1 218 1 354q0 205 -2 228q-91 -99 -231 -326q-145 -235 -229 -330q-86 108 -229 329q-151 231 -227 331v-1096h-312z" />
<glyph unicode="N" horiz-adv-x="1824" d="M240 7v1528h360q158 -298 436 -656q45 -76 140 -220l8 -4q34 -47 88 -140q23 105 23 330q0 130 -9.5 373.5t-9.5 316.5h316v-1528h-360q-36 94 -145 243q-158 217 -169.5 237.5t-33.5 43.5q-42 61 -92 148l-8 4q-59 118 -228 348v-1024h-316z" />
<glyph unicode="O" horiz-adv-x="1712" d="M228 754q0 348 192 576q204 241 543 241q359 0 556 -237q182 -221 182 -589q0 -337 -209 -556q-212 -222 -549 -222q-307 0 -516 243q-199 232 -199 544zM572 776q0 -178 80 -326q97 -179 262 -179q442 0 442 501q0 227 -99 354q-110 141 -331 141q-171 0 -271 -170 q-83 -142 -83 -321z" />
<glyph unicode="P" horiz-adv-x="1456" d="M248 7v1528h696q175 0 310 -160q130 -153 130 -330q0 -502 -620 -502h-200v-536h-316zM564 831h336q63 0 118 71q52 67 52 132q0 100 -66 159q-62 56 -162 56l-278 -2v-416z" />
<glyph unicode="Q" horiz-adv-x="1748" d="M159 763q0 326 185 558q200 250 517 250q383 0 591 -222q202 -216 202 -603q0 -204 -80 -359q-63 -123 -225 -292q35 -32 84 -144q-95 -52 -292 -144q-31 54 -84 168q-9 1 -21 1q-27 0 -66 -5q-64 -7 -87 -7q-327 0 -531 240q-193 227 -193 559zM500 772q0 -215 91 -352 q101 -150 287 -150h19l12 1q-1 14 -12 20l-4 16q-6 5 -35 64q-27 56 -29 64q35 14 125 65q79 46 127 59q36 -61 108 -184q123 132 123 396q0 219 -96 349q-108 147 -319 147q-196 0 -304 -157q-93 -135 -93 -338z" />
<glyph unicode="R" horiz-adv-x="1604" d="M240 3v1532q-4 0 359 7q64 1 121 1q137 0 236 -8q210 -18 333.5 -149t123.5 -343q0 -279 -305 -420l8 -4q39 -80 185 -306q124 -192 167 -310h-364q-21 72 -105 199q-111 168 -127 197q-50 92 -56 92q-22 35 -60 108h-200v-596h-316zM556 887h384q61 0 109 63 q45 59 45 121q0 67 -56 121.5t-122 54.5h-360v-360z" />
<glyph unicode="S" horiz-adv-x="1588" d="M93 267q114 90 260 208q207 -204 453 -204q95 0 163 31q94 40 94 125q0 134 -212 191q-382 102 -394 107q-212 100 -212 338q0 256 178 390q159 121 423 121q351 0 603 -255q-35 -43 -113 -108q-94 -79 -119 -104q-185 152 -379 152q-78 0 -145 -27q-92 -37 -92 -105 q0 -112 212 -171q330 -93 393 -128q212 -117 212 -369q0 -258 -214 -389q-177 -107 -452 -107q-383 0 -659 304z" />
<glyph unicode="T" horiz-adv-x="1276" d="M48 1231v304h1180v-304h-432v-1228h-316v1228h-432z" />
<glyph unicode="U" horiz-adv-x="1704" d="M264 667q0 143 3.5 430t3.5 430q40 -10 101 -11q39 0 111 3q77 4 104 4l4 -964q0 -102 104 -190q100 -86 204 -86q87 0 165.5 48t122.5 124q0 1 15.5 59t16.5 73q11 137 12 310v48q0 104 -3 267q-5 216 -5 311h312v-984q0 -228 -205 -405q-197 -170 -428 -170 q-287 0 -468 212q-170 200 -170 491z" />
<glyph unicode="V" horiz-adv-x="1440" d="M60 1527h328q70 -205 168 -570q111 -417 160 -574q-2 9 149 534q164 568 175 610h332q-94 -402 -436 -1524l-20 -4h-420q-121 392 -242 785q-175 582 -194 743z" />
<glyph unicode="W" horiz-adv-x="2096" d="M112 1527h236l92 -4q-2 -7 114 -502.5t126 -525.5q17 111 156 744l60 288h368q13 -179 101 -516q93 -354 111 -516q11 15 115 471q125 546 129 561h324v-12q0 -77 -352 -1516h-308l-92 4q1 6 -99 495q-101 493 -113 533q-7 -15 -107 -495q-98 -473 -109 -537h-308l-92 4 q-17 182 -150 752q-129 553 -202 772z" />
<glyph unicode="X" horiz-adv-x="1412" d="M36 -1q13 31 152 257q137 222 144 227q0 9 27.5 53t36.5 51q2 10 12 20q38 67 120 196l-60 104q-5 0 -41 60q-34 56 -43 76q-41 90 -147 243q-114 166 -153 241h372q4 -3 104.5 -165.5t103.5 -174.5l8 -4q15 -31 48 -72q11 43 196 320q5 21 28 44l28 52h372 q-71 -152 -209 -367q-118 -176 -235 -353l124 -204q2 0 16 -24q119 -192 356 -580h-372q-2 2 -9 19q-6 14 -11 13q-21 67 -97 178q-98 144 -115 174q-11 21 -32 44q-14 31 -48 72l-304 -500h-372z" />
<glyph unicode="Y" horiz-adv-x="1392" d="M27 1527h360q63 -85 157 -275q96 -194 155 -277q34 106 138 279q83 136 166 273h364l-36 -64q-54 -96 -56 -96q-194 -388 -194 -389q-125 -238 -226 -371v-608h-316v608q-138 196 -300 540l-8 4q-18 69 -95 188q-87 135 -109 188z" />
<glyph unicode="Z" horiz-adv-x="1292" d="M80 -1v320q6 5 71 91t73 101l8 4q90 143 468 616q8 17 28 36l28 44h-652v316h1052v-320q-91 -82 -341 -425q-170 -233 -339 -467h704v-284l-16 -32h-1084z" />
<glyph unicode="a" horiz-adv-x="1204" d="M80 279q0 207 178 326q155 103 377 103q45 0 89 -5l1 27v8q0 138 -134 138q-82 0 -186 -47q-146 -66 -173 -74l-28 52q-2 0 -12 16q-39 53 -100 160q112 52 225 104q127 54 243 54q285 0 387 -122q75 -91 75 -306q0 -34 -2 -110t-2 -116q0 -132 18 -228q49 -51 112 -64 q-45 -99 -104 -228h-3q-176 0 -265 112q-111 -111 -263 -111q-144 0 -278 81q-155 94 -155 230zM395 335q0 -51 54 -88q49 -32 104 -32q60 0 135 36q36 46 36 64v168h-12q-28 0 -150 -28q-125 -29 -138 -40q-29 -26 -29 -80z" />
<glyph unicode="b" horiz-adv-x="1324" d="M144 3v1524h300v-476q152 88 294 88q237 0 371 -185q119 -164 119 -409q0 -246 -126 -403q-137 -170 -376 -170q-161 0 -278 99l-4 -68h-300zM444 423q0 -66 84 -126q79 -55 154 -55q242 0 242 331q0 298 -284 298q-61 0 -128.5 -69.5t-67.5 -130.5v-248z" />
<glyph unicode="c" horiz-adv-x="1160" d="M90 547q0 221 123 396q139 196 355 196q416 0 548 -360q-10 -6 -143 -52.5t-141 -47.5q-61 192 -244 192q-97 0 -153 -132q-43 -101 -43 -209q0 -110 57 -199q65 -102 169 -102q75 0 137 59q59 55 77 131h12q3 0 27 -10.5t25 -13.5q13 -3 80 -26q76 -27 80 -34l60 -20 q-151 -355 -493 -355q-252 0 -397 172q-136 161 -136 415z" />
<glyph unicode="d" horiz-adv-x="1296" d="M105 545q0 255 124 417q137 178 386 178q151 0 280 -93v480h300v-1524h-300v68q-127 -98 -295 -98q-232 0 -369 173q-126 160 -126 399zM411 539q0 -123 56 -204q64 -93 181 -93q89 0 163 55q80 60 80 146v232q0 80 -85 141q-78 56 -160 56q-122 0 -184 -112 q-51 -90 -51 -221z" />
<glyph unicode="e" horiz-adv-x="1192" d="M108 563q0 197 120 366q132 190 325 190q297 0 445 -176q129 -153 129 -417q0 -23 -1 -46l-1 -33l-12 4h-712q27 -215 255 -215q145 0 253 107q74 -88 184 -184q-151 -192 -394 -192q-280 0 -436 160q-155 157 -155 436zM405 675h436q-21 83 -76 137q-62 59 -144 59 q-78 0 -142 -61q-59 -57 -74 -135z" />
<glyph unicode="f" horiz-adv-x="856" d="M56 851v248h172q-7 51 -7 96q0 151 82 245q87 100 237 100q118 0 272 -33v-20q0 -26 -23 -114q-14 -57 -29 -114q-51 12 -92 12q-80 0 -110 -34q-27 -30 -27 -103q0 -15 1 -35h208v-248h-208v-852h-304v852h-172z" />
<glyph unicode="g" horiz-adv-x="1272" d="M91 560q0 249 121 395q131 159 376 159q125 0 236 -71l4 52h300v-1052q0 -210 -180 -315q-146 -84 -369 -84q-255 0 -475 127q-1 8 63 118q36 63 73 126q89 -35 177 -69q96 -32 189 -32q113 0 163 33q60 38 60 134q0 14 -1 30q-131 -56 -251 -56q-215 0 -352 147 q-134 143 -134 358zM389 562q0 -106 63 -171t168 -65q213 0 213 263q0 256 -226 256q-111 0 -169 -90q-49 -76 -49 -193z" />
<glyph unicode="h" horiz-adv-x="1296" d="M140 -1v1528h300v-508q132 101 267 101q170 0 299.5 -130t129.5 -299v-692h-300v-1l4 234q2 96 2 174t-2 136q-5 164 -24 209q-16 38 -70 65q-50 26 -94 26q-70 0 -139 -53q-73 -57 -73 -126v-664h-300z" />
<glyph unicode="i" horiz-adv-x="596" d="M144 1371q0 107 98 153q31 15 38 15q78 0 136 -38q68 -44 68 -119q0 -85 -47 -135t-131 -50q-72 0 -117 51t-45 123zM164 -1v1092h300v-1092h-300z" />
<glyph unicode="j" d="M32 -313q0 16 72 232q42 -14 78 -14q69 0 114 54q19 111 19 369q0 147 -7.5 418t-7.5 345h296l4 -1244q0 -117 -131 -172q-95 -40 -229 -40q-106 0 -208 32v20zM282 1367q0 63 42 115q45 57 108 57q68 0 126 -42q63 -47 63 -113q0 -187 -179 -187q-70 0 -115 49.5 t-45 120.5z" />
<glyph unicode="k" horiz-adv-x="1232" d="M132 3v1524h300v-812q129 123 372 376h400q-2 -5 -207 -215q-210 -215 -233 -233q0 -16 12 -16q111 -188 328 -524q14 0 64 -100h-356q-51 69 -135 209q-87 146 -133 211q-39 -36 -112 -116v-304h-300z" />
<glyph unicode="l" horiz-adv-x="680" d="M128 191v1336h304v-1216q39 -46 103 -46q35 0 73 14q7 -17 32 -268q-10 1 -23 1q-34 0 -116 -17.5t-117 -17.5q-94 0 -171 58q-85 64 -85 156z" />
<glyph unicode="m" horiz-adv-x="1876" d="M136 3v1092h300v-72q129 103 271 103q177 0 269 -147q137 145 297 145q182 0 310.5 -132t128.5 -313v-676h-300q0 26 3 157t3 216q0 339 -42 403q-2 0 -31.5 29.5t-72.5 29.5q-79 0 -138 -53q-62 -56 -62 -134v-648h-296q0 18 4 133t4 197q0 510 -140 510 q-83 0 -145.5 -57.5t-62.5 -138.5v-644h-300z" />
<glyph unicode="n" horiz-adv-x="1292" d="M136 3v1092h304v-11q0 -27 4 -57q122 96 230 96q209 0 337 -131q125 -130 125 -337v-652h-304q0 5 4 229q2 116 2 203q0 58 -1 103q-3 161 -17 201q-13 36 -60 72t-84 36q-69 0 -147 -43q-89 -50 -89 -113v-688h-304z" />
<glyph unicode="o" horiz-adv-x="1248" d="M94 547q0 223 124 397q139 195 358 195q271 0 424 -159t153 -429q0 -239 -136 -410q-147 -185 -381 -185q-254 0 -402 172q-140 162 -140 419zM397 585q0 -10 1 -25q2 -19 2 -25q4 -106 27 -163q32 -78 113 -117q50 -24 72 -24q122 0 186 98q54 84 54 212q0 330 -260 330 q-9 0 -54 -28q-141 -86 -141 -258z" />
<glyph unicode="p" horiz-adv-x="1296" d="M120 -325v1416h300v-44q138 92 236 92q547 0 547 -580q0 -254 -119 -412q-132 -176 -380 -176q-152 0 -284 100v-396h-300zM416 435q0 -81 87 -140q77 -54 160 -54q122 0 183 99q50 81 50 213q0 137 -54 221q-65 99 -194 99q-63 0 -125 -42q-57 -38 -91 -96 q2 -13 -7 -37.5t-9 -34.5v-228z" />
<glyph unicode="q" horiz-adv-x="1304" d="M138 562q0 243 120 402q133 176 367 176q157 0 289 -93l4 44h304v-1416h-304v396q-139 -102 -286 -102q-244 0 -376 181q-118 161 -118 412zM435 553q0 -134 54 -215q64 -95 191 -95q94 0 164 58q74 61 74 154v224q0 78 -86 138q-77 55 -158 55q-13 0 -35 -6t-33 -7 q-25 -22 -88 -48q-83 -122 -83 -258z" />
<glyph unicode="r" horiz-adv-x="920" d="M140 3v1088h300v-104q123 124 240 124h108v-288q-33 4 -64 4q-121 0 -200 -67q-84 -71 -84 -189v-568h-300z" />
<glyph unicode="s" horiz-adv-x="1084" d="M24 171q27 33 103 105t113 99q153 -150 308 -150q48 0 96 14l4 8q44 28 44 61q0 47 -40 75q-4 -2 -26.5 6.5t-25.5 13.5q-228 37 -320 81q-176 82 -176 255q0 200 126 300q115 90 320 90q261 0 446 -166q-80 -80 -184 -200q-145 121 -254 121q-87 0 -150 -77 q-1 -46 20 -80q53 -14 148 -36q228 -46 295 -86q135 -79 135 -268q0 -192 -158 -288q-130 -79 -334 -79q-278 0 -490 201z" />
<glyph unicode="t" horiz-adv-x="912" d="M60 851v252h176v340q147 25 296 88q8 -8 8 -428h276v-252h-276v-544q0 -32 47 -52q38 -15 75 -15q56 0 130 27q15 -80 68 -248q-157 -49 -303 -49q-230 0 -288 117q-33 65 -33 320v444h-176z" />
<glyph unicode="u" horiz-adv-x="1300" d="M132 459v636h304l4 -716q0 -42 66 -87q62 -42 107 -42q65 0 132 44q71 47 83 109q14 72 14 212q0 88 -7 257t-7 223h304v-1092h-304v72q-136 -99 -271 -99q-111 0 -211 62t-154 161q-22 0 -43 122q-17 100 -17 138z" />
<glyph unicode="v" horiz-adv-x="1160" d="M36 1091h312q43 -91 112 -340q63 -226 124 -332q22 76 124 335q82 211 104 337h316q-48 -86 -194 -524l-186 -568h-336q-31 135 -198 562q-158 403 -178 530z" />
<glyph unicode="w" horiz-adv-x="1736" d="M32 1091h300q7 -117 83 -335q86 -243 101 -337q85 205 164 672h332q13 -206 160 -672q67 223 188 672h300v-12q0 -15 -138 -498l-166 -582h-352q-5 10 -77 316.5t-79 347.5q-22 -81 -75 -334q-45 -210 -85 -330h-352q1 6 -144 523q-141 508 -160 569z" />
<glyph unicode="x" horiz-adv-x="1192" d="M28 -1q13 28 73 119.5t67 92.5q108 232 244 368q-154 203 -196 300l-8 4l-136 208h340q70 -102 164 -252q38 38 172 252h340q-159 -243 -340 -508q47 -102 191.5 -291.5t192.5 -292.5h-332q-124 221 -224 328q-24 -69 -216 -328h-332z" />
<glyph unicode="y" horiz-adv-x="1148" d="M16 1091h308q30 -130 104 -327q62 -160 124 -321q77 217 236 648h308q-25 -47 -265 -743q-218 -631 -266.5 -650t-96 -37t-108.5 -18q-53 0 -132 11q-128 17 -132 17v16q0 36 36 252q72 -18 125 -18q49 0 88 20q47 24 47 70q0 91 -110 331.5t-110 320.5q-6 3 -156 428z " />
<glyph unicode="z" horiz-adv-x="1004" d="M52 -1v264q7 9 16 12q18 32 137 170q112 130 115 142l8 4q31 38 64 84q9 0 132 160h-444v256h824v-260q-4 -1 -223 -266t-249 -306h484v-232l-12 -28h-852z" />
<glyph unicode="&#xad;" d="M112 547v232h476v-232h-476z" />
<glyph unicode="&#x2000;" horiz-adv-x="891" />
<glyph unicode="&#x2001;" horiz-adv-x="1783" />
<glyph unicode="&#x2002;" horiz-adv-x="891" />
<glyph unicode="&#x2003;" horiz-adv-x="1783" />
<glyph unicode="&#x2004;" horiz-adv-x="594" />
<glyph unicode="&#x2005;" horiz-adv-x="445" />
<glyph unicode="&#x2006;" horiz-adv-x="297" />
<glyph unicode="&#x2007;" horiz-adv-x="297" />
<glyph unicode="&#x2008;" horiz-adv-x="222" />
<glyph unicode="&#x2009;" horiz-adv-x="356" />
<glyph unicode="&#x200a;" horiz-adv-x="99" />
<glyph unicode="&#x2010;" d="M112 547v232h476v-232h-476z" />
<glyph unicode="&#x2011;" d="M112 547v232h476v-232h-476z" />
<glyph unicode="&#x2012;" d="M112 547v232h476v-232h-476z" />
<glyph unicode="&#x2013;" horiz-adv-x="1316" d="M112 547v232h1024v-232h-1024z" />
<glyph unicode="&#x2014;" horiz-adv-x="2340" d="M112 547v232h2048v-232h-2048z" />
<glyph unicode="&#x202f;" horiz-adv-x="356" />
<glyph unicode="&#x205f;" horiz-adv-x="445" />
<glyph unicode="&#x25fc;" horiz-adv-x="1090" d="M0 0v1090h1090v-1090h-1090z" />
</font>
</defs>
</svg>
